<?xml version="1.0" encoding="utf-8" ?>
<svg xmlns="http://www.w3.org/2000/svg" xmlns:xlink="http://www.w3.org/1999/xlink" width="508" height="501">
	<path fill="#FEBB4D" d="M0 0L229.489 0L255.492 0L507.562 0C508.41 1.4949 507.999 4.39814 507.999 6.13026L508.002 397.938L508.001 476.364C508.001 479.28 508.389 498.826 507.845 500.446C507.776 500.649 507.669 500.813 507.562 501L0 501L0 0ZM0 0L0 501L507.562 501C507.669 500.813 507.776 500.649 507.845 500.446C508.389 498.826 508.001 479.28 508.001 476.364L508.002 397.938L507.999 6.13026C507.999 4.39814 508.41 1.4949 507.562 0L255.492 0L255.503 0.283993C263.953 1.30805 272.505 1.62902 280.908 3.06144C326.132 10.7713 367.977 30.6878 402.307 61.1853C409.881 67.9144 416.737 75.5242 423.84 82.7373C423.873 82.799 423.904 82.8613 423.938 82.9224C425.216 85.232 427.339 87.2839 429.02 89.3184C430.819 91.4967 432.495 93.7978 434.174 96.0702C440.723 104.932 446.6 114.158 452.009 123.759C482.131 177.225 489.764 243.224 473.489 302.319C456.432 364.251 416.025 416.214 360.095 447.894C304.617 479.319 239.103 486.959 177.738 469.931C152.753 462.998 128.723 451.842 107.357 437.128C102.737 433.947 98.2342 430.619 93.8127 427.168C91.3768 425.266 88.6917 422.508 86.0002 421.066C75.8571 411.596 66.008 401.806 57.1981 391.067C29.1382 356.863 9.72208 313.134 4.89592 268.995C3.71253 258.173 2.91044 247.437 3.03313 236.539C3.63789 182.817 22.617 130.797 56.2747 89.0087C91.6451 45.0936 141.577 15.3737 196.817 4.38078C207.68 2.21914 218.508 1.45848 229.491 0.278536L229.489 0L0 0ZM229.489 0L229.491 0.278536C233.699 0.564213 238.019 0.135479 242.243 0.140658C246.631 0.146038 251.135 0.587631 255.503 0.283993L255.492 0L229.489 0Z"/>
	<path fill="#FEBB4D" fill-opacity="0.97254902" d="M229.489 0L255.492 0L255.503 0.283993C251.135 0.587631 246.631 0.146038 242.243 0.140658C238.019 0.135479 233.699 0.564213 229.491 0.278536L229.489 0Z"/>
	<path fill="#009A4C" d="M189.778 72.2799C191.412 72.1267 193.009 72.1953 194.646 72.267C194.873 74.9273 195.106 84.669 194.611 87.097C194.429 87.9884 194.065 88.859 193.188 89.2793C191.273 90.1968 186.824 87.7654 184.923 86.949C182.799 86.0667 177.952 83.9801 176.995 81.8658C176.678 81.1638 176.7 80.3753 177.036 79.6835C178.537 76.5882 186.579 73.2636 189.778 72.2799Z"/>
	<path fill="#009A4C" d="M220.572 111.282C223.554 111.249 233.373 110.623 235.501 111.596C236.147 111.891 236.626 112.403 236.849 113.084C237.877 116.226 233.991 122.786 232.522 125.451C232.122 126.163 231.73 126.931 231.233 127.581C230.646 128.349 229.75 128.884 228.787 128.996C227.829 129.108 226.965 128.731 226.248 128.114C224.249 126.396 219.203 116.357 219.317 113.601C219.359 112.582 219.919 111.989 220.572 111.282Z"/>
	<path fill="#009A4C" d="M224.091 30.6875C224.794 30.6534 225.472 30.6029 226.104 30.9633C229.283 32.7747 232.43 39.9788 233.463 43.393C233.934 44.9497 234.443 46.7269 233.631 48.2374C232.284 49.2599 228.573 48.8138 226.875 48.7944C224.758 48.8145 218.423 49.4699 217.033 48.1192C216.664 47.4282 216.54 46.9122 216.579 46.1229C216.803 41.5618 220.716 33.7419 224.091 30.6875Z"/>
	<path fill="#009A4C" d="M191.448 46.5706C195.703 46.3572 204.168 48.5819 207.526 51.3365C208.297 51.9689 209.041 52.862 209 53.9223C208.92 56.0492 204.449 58.6943 202.993 60.2074L202.75 60.4625C201.813 61.6654 200.862 63.061 199.744 64.0933C199.137 64.6539 198.235 65.3029 197.359 65.1775C196.53 65.0586 195.767 64.3309 195.246 63.7174C193.105 61.1971 189.565 52.1595 189.976 48.8253C190.108 47.7591 190.668 47.2177 191.448 46.5706Z"/>
	<path fill="#009A4C" d="M199.937 97.2846C200.026 97.2856 200.115 97.2775 200.203 97.2877C202.442 97.5472 209.92 106.139 211.89 108.21C210.205 111.906 206.665 112.873 203.179 114.287C201.07 115.036 195.971 116.951 193.86 115.85C193.219 115.516 192.916 114.756 192.786 114.082C192.089 110.453 195.509 101.495 197.672 98.4593C198.341 97.5207 198.87 97.4894 199.937 97.2846Z"/>
	<path fill="#009A4C" d="M192.464 146.158C197.597 146.371 202.832 146.193 207.974 146.199C207.563 170.094 207.952 194.064 207.95 217.968L192.472 217.992C192.733 194.06 192.507 170.093 192.464 146.158Z"/>
	<path fill="#009A4C" d="M217.968 146.111C223.099 146.409 228.34 146.187 233.484 146.18L233.472 217.959L217.992 217.994L217.968 146.111Z"/>
	<path fill="#009A4C" d="M109.968 146.124C115.123 146.417 120.398 146.187 125.565 146.165C125.477 150.979 125.544 155.809 125.538 160.625L125.549 179.639C125.566 191.025 126.4 201.749 117.905 210.661C112.432 216.404 104.686 219.395 96.8296 219.579C88.6763 219.77 80.6038 217.23 74.6405 211.513C71.101 208.119 68.3443 203.497 67.1501 198.732C65.4483 191.941 66.171 184.07 66.1746 177.081C66.1798 166.768 66.291 156.443 66.1288 146.131C71.2658 146.448 76.5922 146.191 81.7483 146.186L81.7173 176.352C81.71 181.832 81.1573 187.899 82.0847 193.272C82.5556 196.001 83.4572 198.44 85.3394 200.518C87.9353 203.384 91.6898 204.853 95.5104 204.949C99.3083 205.045 103.207 203.681 105.917 200.977C107.788 199.109 108.864 196.874 109.389 194.305C110.568 188.537 109.985 181.884 109.985 175.987L109.968 146.124Z"/>
	<path fill="#009A4C" d="M335.962 145.105C343.584 144.583 351.775 145.469 357.847 150.555C363.268 155.095 364.793 161.183 365.38 167.951C360.288 168.024 355.189 167.996 350.097 168.013C349.789 165.586 349.244 163.519 347.407 161.749C345.23 159.65 342.073 158.906 339.122 158.939C336.089 158.973 332.601 159.821 330.471 162.102C329.467 163.178 328.777 164.66 328.919 166.157C329.418 171.45 338.063 172.969 342.168 174.056C344.981 174.801 347.816 175.505 350.585 176.404C354.342 177.624 358.073 179.242 361.108 181.823C365.043 185.17 367.049 189.76 367.399 194.867C367.796 200.662 365.998 206.771 362.107 211.14C356.631 217.287 348.67 218.931 340.813 219.414C333.226 219.315 325.378 217.631 319.646 212.341C314.62 207.703 312.662 201.514 312.373 194.841L327.955 194.76C328.355 197.558 329.002 199.969 331.144 201.994C333.603 204.319 337.166 205.126 340.471 205.045C343.892 204.96 347.582 203.769 349.911 201.169C351.178 199.756 351.97 197.91 351.769 195.991C351.568 194.079 350.384 192.624 348.832 191.575C344.27 188.49 334.94 187.256 329.403 185.488C325.927 184.379 322.441 182.852 319.608 180.51C316.005 177.532 313.948 173.297 313.547 168.66C313.069 163.124 314.383 157.266 318.014 152.957C322.454 147.69 329.32 145.622 335.962 145.105Z"/>
	<path fill="#009A4C" d="M273.239 144.845C280.678 143.745 289.398 146.123 295.696 150.068C304.227 155.411 309.015 163.562 311.205 173.212C306.125 173.357 301.01 173.26 295.926 173.27C294.216 168.933 291.391 165.04 287.408 162.54C282.74 159.609 277.066 158.88 271.739 160.154C266.341 161.445 261.753 164.742 258.846 169.481C255.483 174.963 254.567 182.004 256.087 188.224C257.454 193.815 260.774 198.73 265.746 201.708C269.978 204.243 276.173 205.605 281.023 204.35C287.073 202.784 291.04 199.582 294.216 194.287C294.896 192.877 295.425 191.483 295.911 189.995L311.71 190.028C310.042 195.887 308.206 201.268 304.461 206.17C298.976 213.347 290.592 218.148 281.634 219.29C271.656 220.561 261.464 218.002 253.495 211.813C245.824 205.855 241.056 196.8 239.858 187.219C238.596 177.132 241.181 166.5 247.504 158.463C254.001 150.203 262.956 146.028 273.239 144.845Z"/>
	<path fill="#009A4C" d="M394.39 146.049C399.034 146.681 404.268 146.187 408.969 146.165C418.393 170.153 428.121 194.093 438.006 217.894C432.391 218.176 426.667 218.006 421.043 217.985C419.531 213.415 417.714 208.904 416.024 204.395C413.9 204.499 411.752 204.452 409.625 204.466L387.452 204.451C385.985 209.002 384.234 213.51 382.567 217.99L366.104 217.955C375.516 194.002 384.567 169.831 394.39 146.049Z"/>
	<path fill="#FEBB4D" d="M401.553 165.459C403.432 167.843 409.559 186.346 411.239 190.957L402.562 190.958L392.23 190.962C395.672 182.694 398.735 173.962 401.553 165.459Z"/>
	<path fill="#009A4C" d="M134.968 146.109C141.853 146.457 148.853 146.178 155.751 146.173C160.063 146.17 164.489 145.999 168.722 146.949C172.187 147.726 175.505 149.243 178.345 151.377C183.492 155.242 186.796 161.13 187.623 167.5C188.477 174.08 186.728 181.008 182.619 186.243C178.14 191.95 171.868 194.628 164.811 195.443C160.045 195.711 155.232 195.654 150.46 195.6L150.473 217.962L134.991 217.994L134.968 146.109Z"/>
	<path fill="#FEBB4D" d="M150.55 160.602C156.175 160.848 163.889 159.23 168.604 162.918C170.746 164.593 171.857 167.11 172.169 169.768C172.549 173.004 171.389 175.732 169.413 178.211C164.357 182.577 156.693 181.303 150.444 181.236C150.563 174.407 150.032 167.402 150.55 160.602Z"/>
	<path fill="#009A4C" d="M274.108 41.0545C284.4 40.741 294.754 40.9508 305.052 40.9492C309.825 40.9484 318.333 40.3916 322.697 41.3494C322.946 41.5301 323.122 41.7064 323.273 41.9784C323.874 43.0675 324.086 44.505 324.199 45.7355C324.583 49.9086 324.268 54.3853 324.266 58.586C324.262 63.9917 324.583 69.657 324.057 75.0327C323.943 76.2013 323.608 77.3157 323.271 78.4358C322.523 78.6772 321.758 78.9354 320.984 79.0816C319.009 79.455 312.303 80.1229 310.715 78.7366C310.411 78.4709 310.215 78.1595 310.185 77.7591C310.09 76.4917 311.152 75.5715 311.929 74.6982C312.192 69.8375 312.464 57.5678 311.413 53.2375C303.989 52.9573 295.673 52.8609 288.268 53.3545C288.062 57.8251 288.878 73.236 287.704 76.3409C287.291 77.4315 286.488 78.2654 285.415 78.7252C284.249 79.2249 282.937 79.3537 281.679 79.3896C278.596 79.4777 275.619 78.7892 272.562 78.6821C270.387 78.6058 268.17 78.955 266.005 78.7412C265.483 78.6897 265.047 78.5423 264.564 78.3501C264.298 78.05 264.065 77.9419 264.071 77.5124C264.085 76.3648 265.207 75.4485 265.961 74.6899C265.994 71.3378 266.669 61.2996 265.492 58.6425C265.124 58.392 264.841 58.1916 264.376 58.1703C263.396 58.1253 262.356 58.5978 261.504 59.0274C255.668 61.9727 249.423 66.3121 243.75 69.8054C238.876 72.8067 232.239 76.3323 227.938 79.8231C228.715 80.3134 229.502 80.7653 230.368 81.0826C235.19 82.8492 240.631 83.8092 245.625 85.0712C251.289 86.5025 257.13 88.3618 262.885 89.3116C263.831 89.4678 264.916 89.6766 265.813 89.2702C266.63 87.6655 264.068 86.569 264.037 84.8913C264.03 84.5019 264.233 84.4367 264.485 84.1845C265.877 83.7116 267.48 83.8739 268.938 83.8776C272.871 83.9495 282.658 83.3138 285.785 84.0613C289.427 84.9319 287.372 89.24 288.633 91.4736C288.965 91.6566 289.275 91.7791 289.651 91.8406C291.675 92.1711 293.902 91.8638 295.964 91.8789C300.213 91.9101 304.798 92.2941 309.017 91.9047C309.832 91.8295 310.787 91.727 311.437 91.1858C313.636 89.3554 309.828 86.2686 310.02 84.5215C310.25 84.3263 310.24 84.3124 310.565 84.1688C312.055 83.5108 321.287 83.6786 322.652 84.533C323.537 85.0871 323.829 86.3258 324.008 87.2977C324.67 90.8902 324.992 100.382 322.992 103.286C321.898 103.957 320.17 104.045 318.891 104.121C311.417 104.561 303.724 104.198 296.221 104.201C288.571 104.203 280.687 104.586 273.07 104.039C263.791 103.373 254.594 101.697 245.353 100.719C239.888 100.14 234.426 99.4429 228.959 98.9055C223.344 98.3536 217.472 97.9857 211.929 96.9803C208.82 96.4163 207.458 95.6595 205.645 93.0391C205.377 89.9353 205.505 86.7664 205.509 83.6501L205.536 67.903C205.662 67.6789 205.787 67.4533 205.925 67.236C206.762 65.9207 207.792 64.9853 209.174 64.2697C213.017 62.2797 217.298 60.9468 221.364 59.4935L240.698 52.651L259.882 45.7573C264.566 44.0644 269.25 42.1804 274.108 41.0545Z"/>
	<path fill="#FEBB4D" d="M274.661 43.2818C274.868 43.2784 275.088 43.3916 275.284 43.4601C275.6 43.9474 275.736 44.3283 275.811 44.9084C276.474 50.0409 276.053 55.6489 276.041 60.8474C276.03 65.9119 276.363 71.2677 275.817 76.2944C273.292 76.7345 271.101 76.6268 268.555 76.3535C268.334 72.2663 269.16 61.2597 267.912 58.2404C267.479 57.1951 266.709 56.3286 265.629 55.9371C264.055 55.3667 262.306 55.92 260.856 56.5871C256.265 58.6996 251.955 61.9929 247.631 64.6307L235.288 72.1354C232.937 73.5732 230.426 74.9398 228.247 76.6229C227.294 77.3589 226.1 78.3738 225.756 79.573C225.57 80.2247 225.681 80.7757 225.995 81.3637C226.605 82.5063 228.166 83.1642 229.316 83.5651C235.754 85.8082 242.813 87.1161 249.445 88.7757C254.182 89.9613 259.567 91.8008 264.358 92.367C265.484 92.5 266.488 92.5582 267.522 92.0507C268.618 90.6092 268.453 88.149 268.565 86.3845C271.025 86.2633 273.443 86.2776 275.902 86.3475L276.141 89.9548C276.158 92.6545 276.691 99.4353 275.511 101.587C274.941 101.662 274.98 101.623 274.494 101.41L274.664 101.635C267.733 101.293 260.661 100.223 253.772 99.378L231.698 96.8097C225.688 96.0834 215.364 95.6149 210.022 93.8824C209.188 93.6117 208.759 93.4125 208.408 92.5669C208.074 91.7639 207.988 90.7637 207.941 89.9035C207.783 86.9923 208.041 84.0246 208.023 81.1051C208.004 77.8823 207.669 74.52 207.904 71.3144C207.979 70.2929 208.173 69.2506 208.583 68.3064C209.139 67.0255 210.884 66.232 212.093 65.6784C214.74 64.4655 217.596 63.5844 220.337 62.6077L234.3 57.6621L274.661 43.2818Z"/>
	<path fill="#009A4C" d="M225.385 65.5113C226.174 65.4876 226.491 65.3986 227.188 65.7964C227.402 66.328 227.502 66.5247 227.393 67.1085C227.115 68.6013 225.695 70.0218 224.484 70.834C222.472 72.1848 220.725 72.3514 218.396 71.9129C217.85 71.5801 217.242 71.2477 216.744 70.847C216.241 70.443 216.172 70.1003 216.123 69.4925C216.978 68.1513 223.522 66.346 225.385 65.5113Z"/>
	<path fill="#7D001D" d="M152.134 228.106C155.426 227.785 158.928 227.938 162.228 228.124C176.863 228.953 191.074 232.907 203.78 240.291C219.176 249.239 231.584 262.97 238.361 279.488C240.2 283.971 241.477 288.564 242.713 293.241L204.364 293.259C199.591 281.833 191.318 273.44 180.116 268.204C167.533 262.322 151.603 261.895 138.604 266.64C126.461 271.072 116.934 280.044 111.579 291.79C104.923 306.393 104.527 325.036 110.207 340.023C114.733 351.966 123.412 361.611 135.117 366.847C148.69 372.92 165.07 372.727 178.826 367.369C191.486 362.438 199.848 354.359 205.275 342.012L153.76 341.989L153.764 321.125L153.788 313.543C166.76 314.025 179.892 313.631 192.882 313.632C210.191 313.632 227.549 313.897 244.853 313.562C244.127 338.389 238.057 360.646 221.151 379.511C206.559 395.794 185.463 405.45 163.699 406.621C139.478 407.924 115.718 401.026 97.4898 384.63C79.632 368.567 70.0044 346.272 68.7533 322.441C67.4798 298.183 75.1774 273.933 91.5424 255.807C107.144 238.528 129.088 229.268 152.134 228.106Z"/>
	<path fill="#7D001D" d="M254.829 308.192C257.401 284.433 268.126 263.059 286.881 247.966C306.719 232.003 332.56 225.837 357.649 228.626C381.05 231.227 403.054 242.588 417.791 261.096C432.765 279.903 439.058 304.341 436.33 328.138C433.675 351.293 422.539 372.731 404.166 387.272C384.446 402.879 358.748 409.102 333.92 406.16C310.191 403.347 288.083 391.925 273.214 373.018C262.124 358.916 255.307 340.935 254.574 322.974C254.285 318.024 254.423 313.13 254.829 308.192Z"/>
	<path fill="#FEFEFE" d="M310 263.196L319.261 263.222L319.266 272.306L310.016 272.31L310 263.196Z"/>
	<path fill="#FEFEFE" d="M310.034 287.823C313.112 287.82 316.185 287.87 319.262 287.95L319.266 296.993L310.035 297.007C309.996 293.945 310.015 290.885 310.034 287.823Z"/>
	<path fill="#FEFEFE" d="M309.991 250.507L319.265 250.512L319.277 259.779C316.201 259.723 313.113 259.791 310.036 259.803L309.991 250.507Z"/>
	<path fill="#FEFEFE" d="M310.171 312.376L319.243 312.361L319.262 321.712C316.47 322.206 312.911 321.826 310.039 321.825C309.989 318.864 309.59 315.258 310.171 312.376Z"/>
	<path fill="#FEFEFE" d="M310.01 275.235L319.26 275.25L319.274 284.723C316.196 284.667 313.107 284.723 310.029 284.724L310.01 275.235Z"/>
	<path fill="#FEFEFE" d="M297.508 263.182L307.227 263.237L307.239 272.307L297.523 272.322L297.508 263.182Z"/>
	<path fill="#FEFEFE" d="M298.541 287.876C301.439 287.796 304.33 287.864 307.227 287.924C307.254 290.161 307.739 294.904 307.055 296.83L306.551 296.987L297.542 296.998C297.498 295.013 296.949 289.577 297.799 287.992L298.541 287.876Z"/>
	<path fill="#FEFEFE" d="M297.51 300.219L307.22 300.258L307.254 309.435L297.519 309.452L297.51 300.219Z"/>
	<path fill="#FEFEFE" d="M297.514 324.786C300.75 324.73 303.993 324.775 307.229 324.78L307.251 334L297.533 334.032C297.486 330.952 297.516 327.866 297.514 324.786Z"/>
	<path fill="#FEFEFE" d="M297.505 250.503L307.228 250.508L307.261 259.778C304.024 259.731 300.78 259.792 297.542 259.807C297.469 256.71 297.513 253.602 297.505 250.503Z"/>
	<path fill="#FEFEFE" d="M297.563 312.368C300.786 312.346 304.001 312.366 307.223 312.449L307.252 321.803C304.027 321.714 300.776 321.812 297.548 321.827C297.483 318.68 297.428 315.513 297.563 312.368Z"/>
	<path fill="#FEFEFE" d="M297.508 275.233L307.222 275.258L307.259 284.727L297.538 284.719C297.472 281.56 297.514 278.392 297.508 275.233Z"/>
	<path fill="#FEFEFE" d="M325.594 262.725L331.897 262.736C331.65 266.658 331.836 270.693 331.838 274.627L331.801 296.999L325.654 296.993C325.268 285.615 325.591 274.115 325.594 262.725Z"/>
	<path fill="#FEFEFE" d="M337.998 262.712C345.232 262.919 352.527 262.725 359.768 262.726L359.76 286.179C356.232 286.026 352.659 286.131 349.125 286.123C347.493 286.132 345.859 286.085 344.227 286.054L344.196 296.997L337.999 296.999L337.998 262.712Z"/>
	<path fill="#7D001D" d="M344.275 270.491L344.268 269.489C345.321 268.498 347.624 268.838 349.018 268.88C349.948 268.907 350.873 268.951 351.803 268.916C351.823 272.598 351.9 276.29 351.805 279.97C350.4 279.984 345.203 280.45 344.338 279.621L344.311 279.241C344.012 276.4 344.2 273.349 344.275 270.491Z"/>
	<path fill="#FEFEFE" d="M366.168 262.873L371.807 262.836C374.955 268.204 378.583 273.292 381.479 278.813C381.074 273.669 381.286 268.374 381.329 263.214L387.313 263.215C387.436 274.454 387.376 285.712 387.296 296.952C385.317 297.106 383.255 296.99 381.266 296.991C378.794 291.568 374.862 286.705 372.039 281.431L372.024 296.996L366.042 296.999L366.013 274.13C366.009 270.525 365.605 266.406 366.168 262.873Z"/>
	<path fill="#FEFEFE" d="M310.004 300.222L393.589 300.221L393.596 309.473C386.968 309.462 379.153 309.942 372.667 309.272C374.492 311.668 376.215 314.179 377.573 316.87C377.764 316.832 377.955 316.798 378.146 316.759C382.355 315.901 387.12 316.058 391.26 317.219C392.059 319.206 392.529 321.322 393.063 323.392C388.509 327.686 386.732 328.103 381.452 330.797C381.262 331.17 381.175 331.411 381.242 331.835C381.395 332.8 381.405 333.453 381.252 334.431C381.234 334.543 381.215 334.655 381.196 334.767C385.894 336.207 389.408 338.313 392.998 341.665C392.534 343.845 391.914 345.994 391.332 348.145C386.377 349.161 382.624 349.417 377.718 348.089C376.975 349.574 376.288 351.099 375.271 352.422C378.667 356.001 380.339 359.557 381.893 364.178C380.548 365.725 379.009 367.138 377.554 368.583C373.086 367.588 368.498 365.876 365.634 362.092C364.303 363.124 362.982 363.887 361.467 364.608C361.497 364.7 361.524 364.794 361.557 364.885C362.368 367.093 362.609 368.897 362.668 371.251C362.451 373.697 362.093 375.727 361.121 377.989C359.158 378.645 357.175 379.25 355.201 379.875C354.453 379.359 353.734 378.825 353.052 378.225C350.01 375.549 348.423 372.28 348.157 368.24C346.61 368.258 345.056 368.205 343.508 368.181C342.289 373.406 340.573 376.41 336.433 379.863C334.263 379.262 332.114 378.567 329.961 377.907C328.414 373.179 328.509 369.353 329.962 364.644C328.545 363.903 327.286 363.112 326.028 362.124C322.623 365.775 318.904 367.388 314.129 368.596C312.396 367.248 310.923 365.73 309.485 364.077C310.389 359.521 312.881 355.752 315.98 352.397C315.237 351.075 314.399 349.795 313.621 348.491C308.895 349.174 304.692 349.278 300.024 348.101C299.384 346.095 298.98 343.954 298.482 341.905C302.009 338.097 305.231 336.364 310.045 334.568L310.027 324.761C313.106 324.738 316.188 324.78 319.267 324.798L319.267 329.42C325.057 329.156 330.895 329.45 336.694 329.345C337.254 328.447 337.737 327.493 338.242 326.563C335.342 320.774 331.633 315.32 328.949 309.435L310.008 309.455L310.004 300.222Z"/>
	<path fill="#7D001D" d="M335.786 309.396C342.197 309.79 348.94 309.529 355.367 309.422C353.786 312.287 352.139 315.119 350.524 317.965C349.546 319.728 348.516 321.462 347.497 323.202L344.106 323.216C341.101 318.838 338.508 313.966 335.786 309.396Z"/>
	<path fill="#7D001D" d="M344.03 341.937L347.566 341.919C350.534 347.616 354.095 353.007 357.02 358.736C353.837 360.049 350.562 360.618 347.186 361.176C342.747 361.354 338.205 360.273 334.07 358.74C337.275 353.095 340.618 347.459 344.03 341.937Z"/>
	<path fill="#7D001D" d="M317.454 335.757L336.772 335.761L338.26 338.793C336.587 342.509 334.225 346.089 332.189 349.628C331.011 351.671 329.856 353.716 328.765 355.808L327.563 354.749C321.869 349.655 317.885 343.55 317.454 335.757Z"/>
	<path fill="#7D001D" d="M354.751 335.723C361.285 335.838 367.835 335.753 374.37 335.763C373.219 341.409 371.27 346.285 367.708 350.832C366.257 352.637 364.483 354.173 362.741 355.685L352.79 338.862C353.578 337.873 354.154 336.829 354.751 335.723Z"/>
	<path fill="#7D001D" d="M362.588 309.34C362.659 309.383 362.733 309.423 362.802 309.469C369.515 313.925 372.669 321.921 374.443 329.399C371.337 329.332 368.22 329.369 365.113 329.357L354.858 329.415L352.896 326.584C355.985 320.765 359.618 315.22 362.588 309.34Z"/>
	<path fill="#009A4C" d="M423.84 82.7373C432.834 90.4307 442.893 101.639 450.233 110.913C480.432 149.069 498.237 194.572 502.003 243.089C506.781 304.648 486.031 368.05 445.863 414.919C403.974 463.798 345.775 494.125 281.409 499.038C218.402 503.848 155.549 483.146 107.629 442.055C102.15 437.357 96.926 432.395 91.8452 427.269C89.8946 425.301 87.6567 423.287 86.0002 421.066C88.6917 422.508 91.3768 425.266 93.8127 427.168C98.2342 430.619 102.737 433.947 107.357 437.128C128.723 451.842 152.753 462.998 177.738 469.931C239.103 486.959 304.617 479.319 360.095 447.894C416.025 416.214 456.432 364.251 473.489 302.319C489.764 243.224 482.131 177.225 452.009 123.759C446.6 114.158 440.723 104.932 434.174 96.0702C432.495 93.7978 430.819 91.4967 429.02 89.3184C427.339 87.2839 425.216 85.232 423.938 82.9224C423.904 82.8613 423.873 82.799 423.84 82.7373Z"/>
</svg>
