<?xml version="1.0" encoding="utf-8" ?>
<svg xmlns="http://www.w3.org/2000/svg" xmlns:xlink="http://www.w3.org/1999/xlink" width="864" height="560">
	<path fill="#009A4C" d="M101.808 260.526C107.461 260.807 113.495 259.811 119.039 260.544C122.788 261.039 124.263 262.629 126.433 265.526C127.356 276.913 126.631 288.914 126.637 300.358C126.646 316.065 127.196 331.979 126.484 347.663C123.291 348.297 121.369 349.115 118.728 351.059C113.511 351.359 108.135 351.241 102.919 350.97C102.166 350.258 101.387 349.525 100.458 349.049C98.1851 347.885 95.0185 347.633 92.5691 346.677C85.2777 343.832 78.5923 338.963 70.7053 337.716C66.9963 335.532 62.9516 333.945 59.1996 331.827C56.2056 330.138 53.5945 327.856 50.6607 326.077C47.9727 324.446 45.0081 323.286 42.2693 321.741C39.1831 320 33.9958 316.479 33.1707 312.829C32.5975 310.293 32.5703 298.952 34.0624 296.981C35.7566 294.743 45.59 288.52 48.4728 287.071C49.3985 286.606 50.5707 286.462 51.5858 286.293C52.0722 285.71 52.5655 285.136 53.0802 284.578C54.1693 283.396 55.3115 282.435 56.6836 281.588C61.9729 278.324 67.968 275.843 73.5292 273.056C79.1195 270.254 84.9877 266.726 90.838 264.564C92.3934 263.99 94.5098 264.054 96.1611 263.992C97.9815 262.547 99.4671 261.016 101.808 260.526Z"/>
	<path fill="#009A4C" d="M262.84 466.19C277.633 465.296 292.891 466.066 307.738 466.055L328.076 466.038C332.479 466.037 337.029 465.802 341.399 466.405C344.089 468.378 345.789 471.24 347.955 473.721C348.663 481.048 349.614 487.501 345.177 493.858C345.204 500.377 341.711 504.046 339.253 509.703C338.418 511.627 338.635 513.802 337.838 515.723C335.219 522.033 331.798 528.919 328.309 534.791C326.388 538.024 324.151 541.066 322.288 544.334C320.34 547.751 318.707 552.338 315.959 555.131C314.507 556.607 313.34 557.551 312.508 559.493C312.435 559.664 312.354 559.831 312.277 560L294.536 560C293.344 557.709 291.627 556.052 290.124 554.006C286.971 549.712 282.974 544.205 280.575 539.573C275.951 530.642 271.438 521.545 266.981 512.526C264.389 507.281 262.201 500.561 258.324 496.229C257.979 492.96 257.948 489.84 258.121 486.56C256.109 484.621 254.868 483.077 254.789 480.166C254.674 475.933 257.283 471.46 260.155 468.528C260.987 467.678 261.886 466.9 262.84 466.19Z"/>
	<path fill="#009A4C" d="M109.929 127.544C117.202 127.09 124.692 127.44 131.988 127.439L134.662 130.373C140.854 130.7 143.527 132.669 148.99 133.758C150.899 134.139 153.085 134.039 155.034 134.073L157.78 137.063L164.104 137.279C167.281 139.934 171.235 140.632 174.185 143.496C175.571 143.516 177.027 143.494 178.398 143.703C187.076 145.027 196.342 154.768 201.461 161.545C201.6 163.36 201.762 165.194 201.751 167.015C201.741 168.67 201.477 170.142 200.653 171.603C198.386 175.618 191.845 181.351 188.062 184.046C185.415 185.931 182.4 187.416 179.883 189.463C175.876 192.721 172.254 196.946 168.551 200.572C165.027 203.842 163.642 207.98 160.729 211.658C157.216 216.093 152.546 220.041 148.494 224.003C144.214 224.573 139.998 224.339 135.71 224.055C127.568 217.697 124.22 210.951 119.817 201.96C118.326 198.916 116.956 195.953 114.907 193.232C114.682 191.052 114.683 188.829 114.61 186.638C114.078 186.21 113.525 185.775 113.044 185.288C110.873 183.092 111.339 180 111.377 177.164C106.125 172.189 110.028 169.436 105.267 164.436C104.989 162.874 104.996 161.277 104.58 159.731C103.875 157.106 102.562 154.714 101.96 152.037C100.789 146.838 101.274 140.472 101.682 135.165C104.234 132.524 106.808 129.489 109.929 127.544Z"/>
	<path fill="#009A4C" d="M285.257 43.4133C285.311 43.438 285.371 43.4526 285.419 43.4874C289.458 46.4036 294.314 47.2715 298.547 50.0793C300.236 54.0036 302.819 56.9676 305.047 60.5434C306.89 63.4989 308.22 66.7567 310.024 69.7381C311.544 72.2501 313.47 74.5151 315.061 76.9862C317.636 80.9848 323.925 92.8816 325.126 97.1999C325.555 98.7406 325.564 100.609 325.648 102.202C325.699 102.269 325.75 102.337 325.803 102.403C332.768 111.051 332.313 123.949 332.156 134.413C331.379 135.568 330.563 136.908 329.58 137.893C328.603 138.873 327.766 139.199 326.425 139.422C322.373 140.098 317.855 139.681 313.742 139.672L289.617 139.62C276.715 139.584 263.716 140.069 250.828 139.657C247.989 139.566 245.887 139.282 243.883 137.086C243.167 136.301 242.459 135.313 242.151 134.288C240.777 129.704 241.707 117.63 241.914 112.36L244.759 109.313L245.186 102.656C248.065 99.5414 248.657 95.4479 251.448 92.3472C251.408 90.5026 251.565 88.6566 251.679 86.8165C258.118 78.4619 258.781 68.7563 267.211 61.0127C268.455 55.1604 273.299 52.21 276.458 47.3815C279.71 46.0746 282.494 45.7678 285.257 43.4133Z"/>
	<path fill="#009A4C" d="M154.505 391.912C154.999 392.041 154.832 391.954 155.221 392.204C157.386 393.597 160.146 393.979 162.129 395.467C164.746 397.429 167.048 400.161 169.35 402.49L181.252 414.377L201.393 434.455C205.263 438.305 209.415 442.082 212.993 446.205C214.318 447.731 214.881 449.222 214.712 451.287C214.485 454.07 213.272 457.085 211.858 459.47C207.229 467.277 198.771 470.302 190.985 474.014C188.709 475.099 186.464 476.053 184.539 477.73L184.169 478.058L177.547 478.609C174.719 481.33 170.868 481.539 168.142 484.304C165.952 484.778 163.648 484.946 161.422 485.219L158.339 487.711C154.858 487.886 151.38 488.129 147.901 488.359L144.943 491.148C137.558 491.383 130.042 491.34 122.656 491.063C121.533 490.163 120.43 489.248 119.516 488.128C115.01 482.607 114.113 477.177 114.808 470.273L117.792 467.403C117.806 464.125 117.869 460.853 117.964 457.577C118.904 456.442 120.024 455.388 121.043 454.321L121.164 444.535L124.31 441.177L124.51 434.822L127.462 431.507C127.484 429.31 127.728 427.096 127.895 424.905C134.425 418.343 136.817 401.589 145.136 394.632C148.932 394.383 151.507 394.602 154.505 391.912Z"/>
	<path fill="#009A4C" d="M788.639 98.1159C790.21 98.0208 791.765 98.1112 793.335 98.1877C795.346 99.3897 797.422 101.436 798.869 103.282C801.68 106.871 804.136 111.143 804.744 115.709C805.718 123.024 804.862 134.195 804.852 141.907L804.839 198.291L804.847 254.883C804.851 262.007 805.673 272.817 804.75 279.43C804.403 281.913 803.376 283.659 801.359 285.185C801.725 286.839 801.734 289.091 801.248 290.714C800.489 293.247 798.897 294.583 796.65 295.715L790.046 296.216C789.464 297.577 787.742 298.378 786.496 299.042C781.393 300.269 741.876 299.899 734.95 298.973C734.286 297.529 732.167 296.119 730.875 295.201C731.407 293.866 730.88 286.384 730.535 284.758C732.946 283.415 739.227 277.612 740.069 275.188C740.124 275.11 740.186 275.037 740.232 274.954C740.528 274.429 740.621 273.864 740.655 273.272C741 267.135 740.57 260.682 740.565 254.513L740.573 213.635L740.593 184.733C740.594 180.368 741.176 175.019 740.294 170.768C740.202 170.35 740.29 170.542 739.969 170.15C737.963 167.698 737.81 165.069 736.224 162.526C716.342 161.708 696.134 162.413 676.222 162.41C657.596 162.408 638.58 161.639 619.991 162.667C619.265 164.619 616.811 166.568 615.183 167.863C615.466 168.46 615.62 168.982 615.659 169.641C615.946 174.398 615.672 179.349 615.672 184.122L615.658 213.644C615.653 221.978 616.623 276.766 614.953 281.539C613.228 286.467 609.18 293.25 604.286 295.62C602.374 296.219 600.079 295.738 598.193 296.56C596.596 297.256 595.327 298.817 593.568 299.146C587.716 300.24 559.054 299.915 552.927 299.017C552.642 298.76 552.351 298.513 552.065 298.259C551.043 297.355 550.141 296.483 548.751 296.197C543.283 295.071 536.385 295.805 530.772 295.819C517.183 295.852 503.5 296.203 489.922 295.728C489.619 293.546 489.165 291.231 489.136 289.033C489.06 283.383 495.77 278.807 499.379 275.053C499.26 247.883 498.936 220.598 499.439 193.435L494.671 188.702C491.096 188.444 487.627 188.532 484.05 188.716C483.93 188.821 483.809 188.925 483.69 189.032C479.668 192.684 472.124 195.223 467.246 198.063C463.858 200.036 460.601 202.692 457.156 204.467C456.145 204.987 454.871 205.22 453.761 205.454C452.353 207.19 450.783 209.057 448.919 210.314C445.568 212.575 441.243 213.333 437.826 215.451C435.822 216.693 434.562 219.042 432.579 220.252C431.114 221.146 429.23 221.321 427.659 222.251C420.173 226.682 401.966 240.247 395.238 241.21C394.014 242.538 392.752 244.069 391.28 245.125C388.353 247.223 384.833 248.776 381.743 250.659C378.714 252.505 375.731 254.903 372.616 256.505C371.609 257.023 370.35 257.26 369.246 257.497C365.195 261.987 358.759 266.276 352.695 267.342C349.563 270.785 347.81 272.806 343.126 273.746C338.849 278.415 333.082 282.255 326.779 283.538C319.925 291.193 310.022 293.152 302.311 301.091C303.844 302.849 305.604 304.439 307.278 306.063C310.607 306.549 311.919 307.195 314.29 309.603L320.798 309.833C322.01 310.88 323.248 311.889 324.492 312.896C327.696 313.172 331.027 313.065 334.249 313.139L337.113 316.161L347.158 316.325C348.159 317.296 349.09 318.397 350.04 319.421L359.913 319.587C361.038 320.521 362.105 321.569 363.188 322.554C366.416 322.886 369.77 322.83 373.018 322.923L376.305 325.857C379.499 326.189 382.824 326.086 386.04 326.127L389.486 329.235C392.787 329.225 396.076 329.182 399.369 329.452C400.383 330.379 401.3 331.442 402.242 332.442C405.581 332.601 408.956 332.556 412.3 332.604L415.14 335.575C418.38 335.846 421.709 335.732 424.962 335.751C426.182 336.755 427.334 337.884 428.503 338.949C431.747 339.072 434.985 339.105 438.23 339.12C439.365 340.091 440.43 341.206 441.513 342.238L451.1 342.316L454.733 345.547L464.266 345.619L467.562 348.593C470.909 348.691 474.252 348.813 477.596 348.981L480.572 351.935C486.497 352.302 493.163 352.564 499.01 351.381C499.432 348.717 499.451 346.046 499.511 343.356C495.433 339.278 488.675 334.495 488.389 328.141C488.32 326.59 488.821 324.904 489.959 323.803C490.638 323.146 491.283 323.014 492.197 322.929C496.828 322.502 501.682 322.769 506.334 322.774L532.352 322.807C556.132 322.82 579.963 322.436 603.738 322.851C604.363 323.103 611 326.63 611.4 327.018C616.918 332.365 615.701 342.489 615.543 349.425C615.461 353.019 615.101 358.649 617.896 361.383C619.1 362.561 620.633 363.402 621.776 364.635C621.894 364.763 622.01 364.893 622.127 365.022C632.606 365.598 643.367 365.119 653.873 365.119L715.395 365.111C720.768 365.13 726.177 365.277 731.542 364.961C733.804 363.859 738.552 360.894 739.798 358.806C739.843 358.742 739.892 358.679 739.934 358.612C741.428 356.247 740.901 347.827 740.206 345.061C740.208 344.98 740.221 344.899 740.213 344.818C739.858 341.542 733.373 335.868 730.687 333.929C731.48 331.718 731.209 325.047 730.298 322.911C738.528 322.568 746.839 322.776 755.078 322.776C766.648 322.775 778.23 322.666 789.798 322.846C789.972 322.924 790.16 323.003 790.315 323.112C792.923 324.948 795.626 325.567 798.212 327.195C799.334 327.902 800.227 328.947 800.522 330.246C801.633 332.627 801.631 334.499 801.233 337.046C802.2 337.636 803.403 338.542 804.05 339.49C806.21 342.65 805.529 403.522 804.608 410.399C804.31 412.629 803.01 414.081 801.307 415.4C801.749 417.168 801.711 419.835 801.138 421.579C799.799 425.65 794.281 425.869 790.989 427.575C788.096 429.075 784.404 429.24 781.176 429.344C763.817 429.905 746.269 429.395 728.894 429.396L626.172 429.395L563.17 429.391C552.316 429.39 540.949 430.144 530.18 429.063C529.007 428.047 527.795 427.13 526.296 426.667C520.053 424.737 507.973 426.756 500.591 425.693C499.399 424.779 498.167 423.922 496.939 423.058C488.486 422.322 479.879 423.49 471.439 422.56L468.216 420.018C460.648 418.82 452.772 419.995 445.128 419.285C444.188 418.438 443.324 417.473 442.438 416.567C434.69 416 426.806 416.971 419.097 415.955C417.966 414.982 416.755 414.115 415.553 413.234C408.34 412.692 401.016 413.678 393.825 412.698C390.793 412.286 388.438 410 385.286 409.823C378.085 409.421 370.826 410.328 363.632 409.487C362.645 408.658 361.715 407.737 360.765 406.864C352.004 406.099 343.16 406.86 334.372 406.312C333.355 405.484 332.456 404.434 331.54 403.494C322.681 403.026 313.677 404.015 304.866 402.87C303.972 402.07 302.995 401.109 301.85 400.7C296.163 398.668 283.005 400.385 276.17 399.838C274.928 399.107 273.804 398.131 272.666 397.248C265.024 396.12 257.192 397.345 249.514 396.446L246.623 393.77C239.56 393.275 226.667 394.665 220.801 393.211C220.032 393.02 219.496 392.513 218.94 391.979C216.126 389.274 211.17 390.701 207.577 389.814C204.094 388.954 201.324 387.249 197.633 386.816C193.798 383.596 190.231 380.549 187.629 376.183C186.121 373.652 185.074 371.287 183.208 368.939C182.748 361.789 183.027 354.504 183.028 347.34L183.045 308.805L183.019 264.894C183.01 256.453 182.772 247.935 183.149 239.504C185.022 237.426 185.599 235.489 186.925 233.153C188.537 230.314 191.108 227.756 193.547 225.594C198.001 221.646 203.565 219.738 208.775 217.047C211.421 215.68 214.074 213.903 216.845 212.821C222.533 210.601 228.869 209.71 233.675 205.699L239.6 205.436L242.98 202.68C245.092 202.366 247.259 202.259 249.387 202.075L253.16 199.281C255.345 199.172 257.5 198.907 259.67 198.636C262.641 195.906 266.394 195.295 269.466 192.694L275.574 192.363L278.904 189.577L285.136 189.108L289.025 186.227C291.133 186.116 293.233 185.93 295.336 185.748L298.936 182.769L304.819 182.645C307.781 179.967 311.713 178.859 314.967 176.486L321.022 176.034L325.063 173.135C327.122 173.073 329.16 172.872 331.209 172.671L334.442 169.863C336.566 169.639 338.77 169.677 340.907 169.607L344.018 166.765L350.616 166.209C354.904 162.204 361.912 159.913 367.64 159.283C370.45 156.467 372.862 156.603 376.555 156.565L380.085 153.694L386.027 153.406C389.492 150.408 391.546 150.217 395.91 150.092C399.258 147.307 403.332 146.47 406.706 143.738L412.621 143.515C413.747 142.522 414.929 141.592 416.097 140.649L421.857 140.388C423.261 139.29 424.714 138.301 426.2 137.317L431.871 137.065C433.229 136.049 434.609 135.061 435.98 134.062L442.076 133.642C445.022 130.891 448.938 130.105 452.113 127.583L458.05 127.276L461.653 124.451C463.66 124.169 465.731 124.113 467.755 123.977C471.313 121.074 473.1 120.571 477.694 120.618L481.079 117.842C485.993 117.685 493.841 114.665 497.564 111.466C499.677 111.11 501.884 111.057 504.022 110.901C504.387 110.541 504.754 110.184 505.134 109.839C507.86 107.366 510.191 107.659 513.573 107.826L517.167 104.693L523.169 104.543L526.803 101.645C528.815 101.368 530.909 101.361 532.939 101.259L536.631 98.3545C544.826 97.5828 553.494 98.1825 561.742 98.1932L610.407 98.2056L724.287 98.2151C745.725 98.2205 767.206 98.4984 788.639 98.1159Z"/>
	<path fill="#FEBB4C" d="M544.52 110.574C547.586 110.76 548.755 112.36 550.701 114.491C552.598 124.605 551.873 136.1 551.874 146.388L551.847 191.936L551.819 245.991C551.811 258.253 552.273 270.66 550.871 282.856C543.6 285.695 523.371 286.651 516.277 283.65C514.713 282.988 513.866 282.187 513.381 280.578C511.729 275.097 512.58 267.285 512.578 261.524L512.585 219.348C512.582 211.278 512.966 202.949 512.241 194.912C512.037 192.648 511.64 190.424 510.783 188.308C508.697 183.153 504.532 179.3 499.412 177.229C492.464 174.419 483.17 175.21 476.421 178.138C467.412 182.047 459.016 187.893 450.665 193.029L408.293 219.112L339.087 261.581C325.404 269.974 310.426 277.813 298.017 287.994C292.79 292.282 290.194 296.955 287.761 303.131C289.143 307.86 290.899 311.95 294.842 315.09C299.428 318.742 305.449 320.986 310.992 322.729C321.694 326.096 332.928 328.361 343.82 331.128L414.834 348.846L470.313 362.794C476.88 364.397 483.575 366.641 490.221 367.767C494.911 368.562 499.996 368.357 504.713 367.861C518.045 358.068 508.208 347.626 515.541 335.438C526.618 334.808 539.041 335.066 550.152 335.615C552.684 342.625 552.306 350.102 552.311 357.439L552.329 390.605C552.329 396.772 552.919 403.628 551.774 409.701C551.457 411.387 550.719 414.585 549.096 415.464C546.677 416.774 515.032 413.489 510.051 412.989C505.261 412.507 500.532 411.452 495.758 410.819C491.144 410.208 486.467 410.161 481.842 409.624C476.976 409.06 472.164 408.062 467.296 407.509L300.072 387.942L241.078 381.273C237.353 380.852 233.584 380.996 229.853 380.678C223.744 380.158 212.939 378.04 207.174 375.931C202.661 374.279 199.522 371.708 197.526 367.292C196.462 364.938 196.256 362.243 196.134 359.694C195.809 352.898 196.044 346.002 196.056 339.196L196.122 301.528L195.886 270.142C195.831 264.44 195.559 258.64 195.843 252.944C195.995 249.871 196.55 246.932 197.661 244.056C199.631 238.956 202.479 235.5 207.22 232.808C219.467 225.855 233.164 221.509 246.385 216.805L290.496 201.093L466.695 138.344L522.386 118.481C529.717 115.824 537.404 113.755 544.52 110.574Z"/>
	<path fill="#009A4C" d="M291.858 225.368C292.306 225.442 292.72 225.553 293.146 225.713C294.936 226.388 296.516 227.532 297.262 229.351C298.597 232.606 297.248 236.464 295.845 239.46C291.356 249.049 284.072 255.861 274.005 259.374C265.782 262.243 254.551 261.778 246.764 257.989C243.462 256.249 239.262 253.594 237.728 250.019C237.16 248.695 237.071 247.281 237.716 245.965C238.66 244.037 240.858 242.952 242.774 242.222C246.047 240.973 249.721 240.641 253.125 239.836C257.016 238.916 260.916 237.628 264.696 236.325C273.913 233.149 282.579 228.178 291.858 225.368Z"/>
</svg>
