<?xml version="1.0" encoding="utf-8" ?>
<svg xmlns="http://www.w3.org/2000/svg" xmlns:xlink="http://www.w3.org/1999/xlink" width="742" height="163">
	<path fill="#009A4C" d="M177.233 33.5059C184.018 33.3058 190.841 33.4641 197.631 33.4774C197.9 33.9761 198.088 34.6012 198.14 35.165C198.503 39.111 198.188 43.3567 198.189 47.3351L198.194 72.3184L198.19 109.598C198.188 115.843 198.44 122.194 198.158 128.428C198.122 129.226 197.95 129.8 197.437 130.423C190.578 130.732 183.574 130.467 176.701 130.453C177.143 129.838 177.204 129.22 177.244 128.491C177.844 117.776 177.305 106.706 177.305 95.9618L177.233 33.5059Z"/>
	<path fill="#009A4C" d="M211.991 33.5057C218.794 33.4007 225.596 33.4468 232.4 33.4798C232.661 33.9938 232.798 34.6222 232.859 35.195C233.229 38.6573 232.903 42.4562 232.903 45.9584L232.909 68.7547L232.909 108.188C232.907 114.905 233.116 121.681 232.876 128.389C232.848 129.175 232.76 129.737 232.251 130.365C227.982 131.161 216.374 130.46 211.42 130.431C211.761 129.919 211.92 129.348 211.962 128.736C212.621 119.222 212.016 107.361 212.014 97.5159L211.991 33.5057Z"/>
	<path fill="#009A4C" d="M6.43942 33.536C13.3914 33.2427 20.433 33.4523 27.3937 33.4294C27.5725 47.5576 27.399 61.7058 27.3899 75.8359C27.3852 83.1724 26.6072 91.4942 28.1044 98.6532C28.8149 102.05 30.3833 105.124 32.8457 107.589C36.4521 111.2 41.3888 112.936 46.4476 112.925C51.5428 112.915 56.4658 111.337 60.1012 107.661C62.4106 105.327 64.0692 102.393 64.8115 99.1943C66.6306 91.3549 65.7395 82.0673 65.7383 74.0455L65.6664 33.5345C72.5994 33.2057 79.6678 33.4387 86.6112 33.4326C86.8467 39.834 86.6666 46.2953 86.6645 52.7033L86.6927 78.9067C86.7019 94.2959 87.732 109.204 75.998 121.098C68.3559 128.844 57.8281 132.562 47.068 132.638C36.1104 132.715 25.3992 129.313 17.4921 121.512C12.8233 116.907 9.41214 111.085 7.8144 104.715C5.41645 95.1549 6.47541 83.3782 6.47941 73.4343L6.43942 33.536Z"/>
	<path fill="#009A4C" d="M375.455 31.6944C380.672 31.4828 386.257 32.2166 391.218 33.8572C398.356 36.2181 404.428 40.7963 407.837 47.5899C409.784 51.4678 412.21 58.6785 410.793 62.967C404.024 62.7696 397.244 62.8698 390.473 62.9081C390.524 62.7858 390.561 62.6948 390.575 62.5619C390.829 60.1529 389.781 57.2072 388.16 55.4386C385.192 52.1997 380.646 50.7231 376.352 50.5663C372.447 50.4238 367.552 51.2981 364.628 54.0649C363.077 55.5322 362.237 57.4193 362.202 59.555C362.062 67.8479 374.259 69.7197 380.393 71.2401C384.011 72.137 387.636 73.0719 391.176 74.2446C397.211 76.2434 403.307 79.0307 407.756 83.7068C412.446 88.6371 414.283 95.5145 414.114 102.194C413.919 109.863 411.288 117.336 405.644 122.69C397.055 130.836 385.164 132.559 373.807 132.265C370.67 132.069 367.536 131.635 364.489 130.849C353.602 128.037 343.492 120.167 340.965 108.747C340.372 106.065 340.432 101.646 339.053 99.3577C339.036 99.3299 339.019 99.3025 339.002 99.275L360.425 99.285C361.947 101.109 360.999 105.457 364.829 108.917C368.403 112.144 373.859 113.28 378.547 113.018C382.824 112.78 387.612 111.394 390.535 108.092C392.172 106.242 393.169 103.636 392.99 101.152C392.291 91.4671 371.188 89.2523 363.616 86.8604C358.2 85.1496 352.848 82.8406 348.541 79.0545C343.799 74.8858 341.635 69.2314 341.251 63.0147C340.794 55.598 342.41 47.9784 347.451 42.3052C354.55 34.3167 365.291 32.2837 375.455 31.6944Z"/>
	<path fill="#009A4C" d="M285.502 31.694C292.466 31.0187 299.655 31.5655 306.338 33.6817C317.795 37.3099 327.723 45.3892 333.255 56.1075C334.848 59.1918 338.621 66.7041 337.566 69.999C330.629 69.8876 323.683 69.963 316.745 69.9693C316.792 69.823 316.829 69.6745 316.837 69.5206C316.974 66.8658 313.054 62.0557 311.358 60.1444C306.634 54.8198 299.906 51.8043 292.838 51.4052C285.306 50.98 277.981 53.5608 272.366 58.5993C266.197 64.1346 262.848 71.8917 262.405 80.1048C261.947 88.6033 264.467 97.1189 270.223 103.506C275.181 109.005 282.066 112.208 289.447 112.581C297.079 112.966 304.306 110.619 309.996 105.469C311.321 104.27 314.304 101.024 314.327 99.218C314.327 99.1683 314.325 99.1186 314.325 99.0689C314.56 98.8774 314.774 98.6696 314.95 98.4207C315.863 97.1237 317.279 94.3108 316.988 92.6899C323.947 92.7233 330.907 92.7933 337.864 92.6639C337.988 92.939 338.078 93.2228 338.127 93.5209C338.896 98.2665 332.267 110.015 329.444 113.856C322.174 123.746 311.375 130.219 299.237 132.069C286.016 134.084 271.925 131.04 261.118 123.07C250.58 115.299 243.732 103.46 241.799 90.555C239.733 76.7666 242.646 62.4091 251.009 51.1309C259.509 39.6676 271.626 33.7404 285.502 31.694Z"/>
	<path fill="#009A4C" d="M450.429 33.5055C456.948 33.4178 463.46 33.4384 469.979 33.4939C470.192 33.6685 470.392 33.8557 470.556 34.0777C472.19 36.279 479.834 56.656 481.381 60.4806L499.578 105.5C502.66 113.119 505.985 120.709 508.836 128.413C509.106 129.14 509.246 129.707 509.095 130.486L486.374 130.417C486.378 130.395 486.383 130.372 486.387 130.35C486.676 128.71 481.148 113.884 479.954 112.117C477.068 112.487 473.831 112.194 470.906 112.188C460.983 112.234 451 112.354 441.082 112.102C440.85 114.972 436.147 128.198 434.368 130.466C426.925 130.479 419.482 130.513 412.04 130.4C412.828 129.772 413.113 128.836 413.483 127.935C422.457 106.13 430.787 84.004 439.411 62.0556L446.978 42.786C448.141 39.8237 449.808 36.6044 450.429 33.5055ZM460.333 59.2229C459.713 62.9987 449.654 90.4381 447.62 94.0617L460.399 93.9861C464.557 93.9819 469.126 93.5888 473.235 94.0558C473.37 93.1821 461.883 60.6683 460.835 59.3825C460.795 59.3328 460.707 59.2672 460.663 59.2313L460.534 59.5117L460.333 59.2229Z"/>
	<path fill="#009A4C" d="M99.682 33.529C106.652 33.2584 113.691 33.4327 120.668 33.42C128.626 33.4056 137.258 32.7129 145.053 34.4186C149.69 35.4334 153.984 37.3834 157.796 40.2113C164.871 45.4602 169.375 53.0861 170.647 61.7918C171.927 70.5605 169.793 79.7977 164.463 86.924C158.78 94.5222 150.59 98.5696 141.36 99.9141C134.394 100.487 127.318 100.285 120.331 100.306L120.304 130.478L99.5392 130.455L99.5672 64.3927L99.5206 44.772C99.5096 41.0661 99.267 37.2047 99.682 33.529ZM120.412 52.858C120.263 62.2661 120.354 71.6829 120.374 81.0922C128.31 80.4608 139.635 83.0434 145.845 76.9943C148.649 73.63 150.223 70.177 149.827 65.6865C149.511 62.1144 148.158 58.609 145.348 56.259C138.782 50.7681 128.228 53.4297 120.412 52.858Z"/>
	<path fill="#FEBB4D" d="M576.465 31.6942C585.482 31.0638 594.004 31.709 602.473 35.1111C614.686 40.0169 623.888 49.0925 629.019 61.172C629.793 62.9939 631.399 66.5687 630.624 68.482L609.164 68.4637C609.2 68.2887 609.229 68.1049 609.22 67.9255C609.088 65.0927 604.862 60.5704 602.834 58.7795C596.947 53.581 588.634 51.0559 580.84 51.5513C573.373 52.0259 566.252 55.2183 561.29 60.8704C555.355 67.6317 553.542 76.3056 554.116 85.0953C554.635 93.0569 557.563 100.49 563.663 105.831C569.517 110.957 577.33 113.017 585.002 112.495C592.837 111.963 600.8 108.85 606.031 102.813C607.287 101.364 609.656 97.9589 609.491 96.036C609.489 96.0121 609.486 95.9883 609.484 95.9645C606.301 96.299 602.851 96.0337 599.643 96.0303L580.199 96.1116C580.415 95.7974 580.591 95.4414 580.672 95.0668C581.079 93.1867 581.185 89.078 580.147 87.4772C580.292 87.2701 580.416 87.0604 580.509 86.8238C581.152 85.1811 581.027 81.437 580.294 79.8248L613.485 79.7883C619.632 79.7746 625.851 79.5669 631.991 79.8169C632.082 80.1693 632.146 80.5219 632.196 80.8822C633.651 91.372 627.753 106.018 621.511 114.265C614.175 123.957 602.941 130.537 590.896 132.193C577.162 134.081 563.033 131.112 551.909 122.669C541.399 114.693 534.835 102.768 533.07 89.7564C531.194 75.9216 534.325 61.4694 542.864 50.2839C551.158 39.4178 563.091 33.4989 576.465 31.6942Z"/>
	<path fill="#FEBB4D" d="M680.049 31.6942C694.455 30.3974 708.685 33.6847 719.995 43.0043C730.176 51.3933 736.375 63.6154 737.62 76.7026C738.913 90.2908 735.242 104.09 726.481 114.675C717.755 125.218 705.238 131.218 691.723 132.484C678.304 133.662 664.704 130.521 653.915 122.26C643.264 114.105 636.57 102.192 634.833 88.9255C633.077 75.5165 636.411 61.6947 644.698 50.9313C653.427 39.5942 666.064 33.5259 680.049 31.6942Z"/>
	<path fill="#FECA6F" d="M662.078 80.6658C665.12 79.794 669.245 80.3277 672.433 80.3303L673.098 80.7817L668.656 80.6876C669.143 82.2082 669.461 83.9242 669 85.4972L666.544 85.4811C666.726 85.2955 666.872 85.099 666.975 84.8592C667.566 83.4836 667.195 81.9994 666.673 80.6764L662.078 80.6658Z"/>
	<path fill="#FEFEFE" d="M669.032 67.3883C670.409 67.37 672.21 67.1335 673.448 67.8006C673.933 68.5243 674.016 68.9967 673.851 69.87C673.737 70.4746 673.579 71.153 673.356 71.7274L673.016 72.0861C671.805 72.1947 670.774 72.2587 669.59 71.9423C668.905 70.8757 669.12 68.6932 669.032 67.3883Z"/>
	<path fill="#FEFEFE" d="M668.585 54.3433C669.777 54.2767 672.486 53.848 673.405 54.6361C673.565 55.1024 673.724 55.5736 673.846 56.0514C674.104 57.0695 674.059 57.6721 673.533 58.5587C672.17 59.304 670.132 59.0103 668.613 58.979C668.799 58.6524 668.95 58.295 669.069 57.9379C669.496 56.6539 669.16 55.5103 668.585 54.3433Z"/>
	<path fill="#FEFEFE" d="M668.656 80.6876L673.098 80.7817C673.816 81.9115 673.966 82.7165 673.67 84.0528C673.557 84.5638 673.436 85.0903 673.261 85.584L669 85.4972C669.461 83.9242 669.143 82.2082 668.656 80.6876Z"/>
	<path fill="#FEFEFE" d="M661.679 74.2564C663.419 74.1413 665.121 74.0319 666.865 74.1538C667.415 75.0562 667.541 76.1299 667.286 77.1567C667.164 77.6449 666.981 78.1466 666.702 78.5675C665.384 79.0378 663.141 78.719 661.713 78.7066C661.885 78.4023 662.021 78.0736 662.136 77.7438C662.588 76.4522 662.249 75.4409 661.679 74.2564Z"/>
	<path fill="#FEFEFE" d="M661.794 67.4101L666.702 67.4251C667.441 68.6226 667.622 69.7795 667.296 71.1575C667.211 71.5144 667.109 71.8194 666.899 72.1216C665.298 72.0832 663.382 72.2346 661.859 71.7217C661.966 71.4489 662.067 71.1741 662.154 70.8943C662.547 69.636 662.392 68.564 661.794 67.4101Z"/>
	<path fill="#FEFEFE" d="M668.622 60.5729L673.247 60.7213C674.107 62.1457 673.905 63.9431 673.779 65.546L673.527 65.6585C671.939 65.6857 670.337 65.7545 668.75 65.6595C669.236 63.8419 669.494 62.3107 668.622 60.5729Z"/>
	<path fill="#FEFEFE" d="M669.03 47.4528L673.642 47.5406C674.264 49.3846 674.149 50.7019 673.379 52.4788C671.882 52.4172 670.219 52.4896 668.763 52.1349C669.536 50.7227 669.282 48.9685 669.03 47.4528Z"/>
	<path fill="#FEFEFE" d="M662.078 80.6658L666.673 80.6764C667.195 81.9994 667.566 83.4836 666.975 84.8592C666.872 85.099 666.726 85.2955 666.544 85.4811C664.969 85.5997 663.286 85.5016 661.701 85.5068C662.627 84.0914 662.338 82.2353 662.078 80.6658Z"/>
	<path fill="#FEFEFE" d="M662.007 54.21C663.612 54.1618 665.177 54.1992 666.778 54.2952C667.45 55.3834 667.773 56.4127 667.475 57.6945C667.375 58.1239 667.241 58.5775 666.992 58.9445C665.296 58.9019 663.433 59.0158 661.853 58.3238C661.952 58.1169 662.045 57.9083 662.13 57.6951C662.599 56.5078 662.512 55.3627 662.007 54.21Z"/>
	<path fill="#FEFEFE" d="M661.825 47.4228L666.932 47.4509C667.684 48.57 667.832 49.3584 667.57 50.7174C667.479 51.1868 667.386 51.6715 667.229 52.1237C666.439 52.7146 662.942 52.252 661.84 52.1936C662.037 51.842 662.198 51.4582 662.326 51.0755C662.767 49.7566 662.415 48.6211 661.825 47.4228Z"/>
	<path fill="#FEFEFE" d="M661.869 60.8643C663.57 60.5682 665.177 60.5672 666.893 60.6017C667.378 61.8069 667.971 63.412 667.43 64.6769C667.248 65.103 666.835 65.3364 666.482 65.6248C665.603 65.7184 664.769 65.7404 663.886 65.7071C663.508 65.7017 663.081 65.5343 662.714 65.4352C661.933 64.3139 662.488 62.3128 661.869 60.8643Z"/>
	<path fill="#FEFEFE" d="M666.213 87.3292L669.045 87.318C669.156 88.539 669.675 91.2138 668.829 92.2041C668.051 93.114 666.99 93.3152 665.848 93.4841L666.005 92.7015C665.035 92.0692 663.347 92.3925 662.102 92.0472C662.577 90.5445 662.262 88.806 661.763 87.355L666.213 87.3292Z"/>
	<path fill="#FECA6F" d="M666.213 87.3292L669.045 87.318C669.156 88.539 669.675 91.2138 668.829 92.2041C668.051 93.114 666.99 93.3152 665.848 93.4841L666.005 92.7015C665.035 92.0692 663.347 92.3925 662.102 92.0472C663.413 92.0822 665.237 92.2965 666.386 91.5725C667.219 91.0472 667.317 90.7016 667.52 89.7826C667.229 88.7567 666.99 88.0865 666.213 87.3292Z"/>
	<path fill="#FEFEFE" d="M677.001 54.152C677.936 54.0774 679.589 53.7491 680.408 54.1876L680.424 54.3086C680.693 56.3257 680.934 69.8712 680.391 71.3135C680.294 71.5705 679.846 72.0285 679.666 72.2635C678.939 72.3296 678.43 72.3348 677.745 72.0657C675.664 68.2569 678.431 58.8891 677.001 54.152Z"/>
	<path fill="#FEFEFE" d="M684.017 54.1522C687.601 54.1517 691.184 54.2449 694.767 54.3229C694.922 54.5718 695.065 54.8481 695.163 55.1252C695.87 57.1256 695.71 64.5771 694.749 66.5597L688.288 66.5777L687.4 66.7968C686.547 68.2219 687.547 70.3573 686.923 71.8791C686.663 72.513 686.443 72.4856 685.834 72.7258C684.961 72.5341 684.473 72.5901 683.964 71.7999C684.419 70.7138 684.006 56.5368 684.017 54.1522Z"/>
	<path fill="#FEBB4D" d="M687.294 57.4121C688.402 57.3063 689.598 57.0416 690.556 57.7422C691.079 58.3538 691.569 58.9625 691.538 59.8143C691.494 60.9703 691.215 62.4032 690.327 63.2079C690.078 63.3067 689.833 63.3796 689.564 63.391C688.502 63.4361 688.211 63.4758 687.409 62.7557C686.803 61.1738 687.187 59.0785 687.294 57.4121Z"/>
	<path fill="#FEFEFE" d="M698.216 54.5142C698.89 54.4101 699.602 54.2864 700.286 54.292C701.375 54.3011 702.069 55.1339 702.769 55.8467C704.179 57.2836 706.17 60.696 706.14 62.7183C707.487 59.96 706.172 56.8847 707.768 54.0748L708.887 53.8858L709.83 54.9642C710.355 57.6986 710.389 69.3566 709.276 71.5396L709.323 72.5369L708.793 72.9348C705.237 72.1033 703.933 66.3806 700.934 64.2534C701.225 64.7729 701.528 65.3362 701.668 65.9181C702.018 67.3708 702.189 70.9026 701.435 72.1617C700.627 72.6396 700.511 72.6933 699.579 72.6429C699.367 72.4768 698.876 72.1904 698.74 71.9848C697.561 70.2078 699.322 58.1759 698.216 54.5142Z"/>
	<path fill="#FEFEFE" d="M668.619 74.1351L676.319 74.1414C688.438 74.3634 700.569 74.2971 712.69 74.4031C713.277 75.6842 713.377 76.845 712.885 78.1845C712.764 78.5143 712.629 78.8303 712.436 79.125L701.557 78.9621C702.541 79.8482 703.91 81.2521 703.944 82.669C703.945 82.7152 703.944 82.7614 703.944 82.8076C706.379 82.7789 710.019 82.324 711.93 84.2424C712.572 84.8866 712.546 85.3184 712.566 86.1751C711.48 88.7654 707.754 90.6463 705.234 91.6989C705.127 91.7434 705.02 91.7851 704.912 91.8247C707.411 93.0259 710.845 94.2607 712.471 96.5689C712.725 97.3321 712.63 98.0815 712.258 98.7909C711.901 99.4723 711.19 99.919 710.469 100.129C708.536 100.692 705.404 99.8813 703.805 100.992C703.567 101.882 703.681 102.333 704.139 103.152C705.22 105.086 706.663 106.709 706.046 109.116C705.861 109.838 705.499 110.26 704.896 110.681C703.953 110.957 703.134 110.843 702.273 110.378C700.776 109.57 699.369 108.088 697.641 107.88C696.998 108.132 696.75 108.148 696.447 108.817C695.235 111.494 698.36 115.132 694.032 116.841C693.388 117.095 692.809 117.028 692.212 116.723C690.023 115.605 689.293 110.185 686.977 110.623C685.283 112.297 684.919 116.624 682.041 116.594C681.219 116.586 680.111 116.362 679.526 115.742C679.136 115.33 678.982 115.023 678.842 114.485C678.376 112.696 679.443 110.626 678.866 108.871C678.681 108.307 678.428 108.165 677.988 107.786C674.658 107.34 672.397 113.317 669.093 109.03C668.713 108.537 668.584 107.888 668.67 107.278C668.996 104.952 672.4 103.094 671.204 100.812C669.398 99.5683 663.304 100.874 662.82 98.2812C662.658 97.4128 662.952 96.6834 663.227 95.8697C663.838 95.2021 665.592 94.1642 665.848 93.4841C666.99 93.3152 668.051 93.114 668.829 92.2041C669.675 91.2138 669.156 88.539 669.045 87.318L672.972 87.4228C673.757 87.9497 673.7 88.3597 673.908 89.2418C674.766 90.0287 677.601 89.7773 678.747 89.744C680.116 89.7044 682.774 89.8373 683.745 88.8104C683.545 86.5469 680.105 80.3584 678.292 78.8243C675.056 78.7949 671.828 78.7696 668.598 78.5758C668.793 78.2142 668.952 77.8176 669.07 77.4233C669.416 76.2696 669.176 75.1689 668.619 74.1351Z"/>
	<path fill="#FEBB4D" d="M682.529 79.1453C685.381 78.4445 689.184 78.8964 692.149 78.8943C692.174 79.035 692.195 79.1724 692.202 79.3155C692.284 81.043 690.746 83.0258 689.631 84.2164C689.652 84.3292 689.66 84.4289 689.653 84.5444C689.575 85.784 688.163 86.681 687.274 87.3745C687.127 85.4622 683.666 80.8662 682.529 79.1453Z"/>
	<path fill="#FEBB4D" d="M686.581 96.5318C687.035 96.4814 687.526 96.5128 687.984 96.5135C690.007 98.0287 692.688 102.81 693.251 105.289C693.29 105.462 693.017 105.79 692.914 105.95C691.43 106.618 689.689 106.629 688.086 106.761C686.318 106.698 683.912 106.876 682.438 105.801C681.374 103.509 685.768 99.041 686.558 96.6051L686.581 96.5318Z"/>
	<path fill="#FEBB4D" d="M691.664 93.6343C694.802 92.8158 698.892 93.3124 702.139 93.3767C702.393 94.1259 702.425 94.8477 702.269 95.6199C701.889 97.4954 700.867 99.7833 699.235 100.879C699.236 100.997 699.233 101.112 699.209 101.228C698.958 102.452 697.175 103.429 696.196 104.051C696.478 101.039 691.497 97.4896 691.664 93.6343Z"/>
	<path fill="#FEBB4D" d="M672.518 93.2721C674.943 92.9962 680.295 92.4287 682.346 93.5978C683.133 94.0466 683.192 94.4094 683.426 95.2242C683.227 97.0451 681.415 99.1866 680.22 100.516C680.237 100.625 680.244 100.728 680.239 100.838C680.181 101.975 678.933 103.184 678.177 103.917C677.916 102.775 674.633 99.2982 673.833 97.7403C673.129 96.3699 672.833 94.7711 672.518 93.2721Z"/>
	<path fill="#FEBB4D" d="M696.071 79.5074L696.951 79.4824C698.736 80.3387 700.279 82.5534 701.145 84.2696C701.975 85.9139 702.936 87.9736 702.328 89.8149L697.708 89.8439C695.806 89.8739 693.671 90.0899 692.025 88.9805C690.933 86.6338 695.79 82.4937 696.064 79.5866C696.067 79.5603 696.068 79.5338 696.071 79.5074Z"/>
</svg>
